<?xml version="1.0" encoding="UTF-8"?>
<svg width="57px" height="55px" viewBox="0 0 57 55" version="1.1" xmlns="http://www.w3.org/2000/svg" xmlns:xlink="http://www.w3.org/1999/xlink">
    <!-- Generator: Sketch 50.2 (55047) - http://www.bohemiancoding.com/sketch -->
    <title>icon/careerCoaching</title>
    <desc>Created with Sketch.</desc>
    <defs></defs>
    <g id="Page-1" stroke="none" stroke-width="1" fill="none" fill-rule="evenodd">
        <g id="Desktop-HD" transform="translate(-206.000000, -833.000000)" fill="#FFFFFF" fill-rule="nonzero">
            <g id="icon/careerCoaching" transform="translate(207.000000, 833.000000)">
                <polygon id="Shape" stroke="#FFFFFF" stroke-width="0.25" points="40.6484375 35.1484375 41.8515625 35.1484375 41.8515625 31.453125 43.484375 33 44.34375 32.140625 41.25 29.046875 38.15625 32.0546875 39.1015625 33 40.6484375 31.453125"></polygon>
                <rect id="Rectangle-path" x="40.6484375" y="36.3515625" width="1.2890625" height="1.2890625"></rect>
                <rect id="Rectangle-path" x="40.6484375" y="38.5859375" width="1.2890625" height="1.2890625"></rect>
                <polygon id="Shape" stroke="#FFFFFF" stroke-width="0.25" points="46.40625 23.8046875 47.265625 24.6640625 48.8125 23.1171875 48.8125 26.8125 50.1015625 26.8125 50.1015625 23.1171875 51.6484375 24.6640625 52.5078125 23.8046875 49.4140625 20.7109375"></polygon>
                <rect id="Rectangle-path" x="48.8125" y="28.015625" width="1.2890625" height="1.2890625"></rect>
                <rect id="Rectangle-path" x="48.8125" y="30.3359375" width="1.2890625" height="1.2890625"></rect>
                <polygon id="Shape" stroke="#FFFFFF" stroke-width="0.25" points="15.296875 33 16.15625 32.0546875 13.1484375 29.046875 10.0546875 32.140625 10.9140625 33 12.4609375 31.453125 12.4609375 35.1484375 13.75 35.1484375 13.75 31.453125"></polygon>
                <rect id="Rectangle-path" x="12.4609375" y="36.3515625" width="1.2890625" height="1.2890625"></rect>
                <rect id="Rectangle-path" x="12.4609375" y="38.5859375" width="1.2890625" height="1.2890625"></rect>
                <polygon id="Shape" stroke="#FFFFFF" stroke-width="0.25" points="1.890625 23.8046875 2.75 24.6640625 4.296875 23.1171875 4.296875 26.8125 5.5859375 26.8125 5.5859375 23.1171875 7.1328125 24.6640625 7.9921875 23.8046875 4.984375 20.7109375"></polygon>
                <rect id="Rectangle-path" x="4.296875" y="30.3359375" width="1.2890625" height="1.2890625"></rect>
                <rect id="Rectangle-path" x="4.296875" y="28.015625" width="1.2890625" height="1.2890625"></rect>
                <path d="M34.6328125,19.6796875 C34.6328125,18.6484375 35.234375,17.703125 36.1796875,17.359375 L44.4296875,17.359375 L55,6.703125 L51.8203125,3.609375 L42.28125,11.0859375 L31.5390625,11.0859375 L28.703125,15.125 L26.296875,15.125 L23.4609375,11.0859375 L12.71875,11.0859375 L3.1796875,3.5234375 L0,6.703125 L10.5703125,17.359375 L18.8203125,17.359375 C19.765625,17.703125 20.3671875,18.6484375 20.3671875,19.6796875 L19.3359375,54.3125 L24.75,54.3125 L27.5,37.0390625 L30.25,54.3125 L35.6640625,54.3125 L34.6328125,19.6796875 Z M34.375,53.109375 L31.3671875,53.109375 L27.5,29.1328125 L23.71875,53.109375 L20.625,53.109375 L21.65625,19.765625 C21.7421875,18.1328125 20.7109375,16.671875 19.1640625,16.15625 L11.0859375,16.15625 L1.8046875,6.703125 L3.3515625,5.2421875 L12.375,12.2890625 L22.859375,12.2890625 L25.6953125,16.328125 L29.390625,16.328125 L32.2265625,12.2890625 L42.7109375,12.2890625 L51.734375,5.2421875 L53.28125,6.703125 L43.9140625,16.15625 L36.09375,16.15625 L35.921875,16.15625 C34.375,16.671875 33.4296875,18.1328125 33.4296875,19.765625 L34.375,53.109375 Z" id="Shape" stroke="#FFFFFF" stroke-width="0.25"></path>
                <path d="M26.8984375,9.109375 C29.21875,9.109375 31.109375,7.21875 31.109375,4.8984375 C31.109375,2.578125 29.21875,0.6875 26.8984375,0.6875 C24.578125,0.6875 22.6875,2.578125 22.6875,4.8984375 C22.6875,7.21875 24.578125,9.109375 26.8984375,9.109375 Z M26.8984375,1.890625 C28.53125,1.890625 29.90625,3.265625 29.90625,4.8984375 C29.90625,6.53125 28.53125,7.90625 26.8984375,7.90625 C25.265625,7.90625 23.890625,6.53125 23.890625,4.8984375 C23.890625,3.265625 25.265625,1.890625 26.8984375,1.890625 Z" id="Shape" stroke="#FFFFFF" stroke-width="0.25"></path>
            </g>
        </g>
    </g>
</svg>