<?xml version="1.0" encoding="UTF-8"?>
<svg width="102px" height="101px" viewBox="0 0 102 101" version="1.1" xmlns="http://www.w3.org/2000/svg" xmlns:xlink="http://www.w3.org/1999/xlink">
    <!-- Generator: Sketch 50.2 (55047) - http://www.bohemiancoding.com/sketch -->
    <title>icon/communicator</title>
    <desc>Created with Sketch.</desc>
    <defs></defs>
    <g id="Page-1" stroke="none" stroke-width="1" fill="none" fill-rule="evenodd">
        <g id="Desktop-HD" transform="translate(-744.000000, -1074.000000)" fill="#5C6D7F" fill-rule="nonzero">
            <g id="icon/communicator" transform="translate(745.000000, 1075.000000)">
                <path d="M94.4832945,50.3496503 C92.9292929,48.4848485 91.0644911,46.9308469 89.044289,45.8430458 C87.024087,44.7552448 84.8484848,43.8228438 82.0512821,43.3566434 C79.2540793,42.7350427 72.2610723,42.1134421 65.2680653,47.3970474 C61.0722611,50.6604507 58.1196581,55.4778555 57.6534577,59.6736597 L57.6534577,63.5586636 L52.3698524,75.5244755 L56.8764569,75.6798757 L56.5656566,81.5850816 C56.5656566,82.6728827 56.8764569,83.7606838 57.6534577,84.5376845 C58.4304584,85.3146853 59.5182595,85.6254856 60.4506605,85.6254856 L65.2680653,85.6254856 L65.2680653,98.8344988 L70.5516706,98.8344988 L70.5516706,96.3480963 L67.4436674,96.3480963 L67.4436674,83.1390831 L60.2952603,83.1390831 C59.8290598,83.1390831 59.3628594,82.983683 59.0520591,82.6728827 C59.2074592,82.3620824 59.0520591,82.0512821 59.0520591,81.5850816 L59.3628594,73.3488733 L55.9440559,73.1934732 L59.98446,63.8694639 L59.98446,59.5182595 C60.2952603,56.0994561 62.9370629,51.9036519 66.6666667,48.951049 C72.8826729,44.1336441 79.0986791,44.9106449 81.5850816,45.3768454 C84.0714841,45.8430458 86.0916861,46.6200466 87.8010878,47.7078477 C89.6658897,48.7956488 91.3752914,50.1942502 92.7738928,51.7482517 C94.017094,53.3022533 95.1048951,54.8562549 95.7264957,56.5656566 C97.5912976,61.0722611 97.4358974,66.045066 95.5710956,71.6394716 C94.9494949,73.5042735 93.7062937,75.3690754 92.6184926,77.2338772 C90.2874903,81.1188811 87.6456876,85.4700855 87.6456876,91.2198912 L87.6456876,98.2128982 L89.97669,98.2128982 L89.97669,91.2198912 C89.97669,86.2470862 92.3076923,82.2066822 94.6386946,78.4770785 C95.8818959,76.4568765 97.1250971,74.4366744 97.9020979,72.4164724 C100.0777,66.3558664 100.0777,60.7614608 98.0574981,55.7886558 C97.1250971,53.9238539 96.037296,52.0590521 94.4832945,50.3496503 Z" id="Shape" stroke="#5C6D7F" stroke-width="1.5"></path>
                <rect id="Rectangle-path" x="69.9300699" y="90.7536908" width="2.33100233" height="2.33100233"></rect>
                <rect id="Rectangle-path" x="69.9300699" y="85.9362859" width="2.33100233" height="2.33100233"></rect>
                <path d="M4.81740482,36.5190365 C7.14840715,40.2486402 9.47940948,44.2890443 9.47940948,49.2618493 L9.47940948,56.2548563 L11.8104118,56.2548563 L11.8104118,49.2618493 C11.8104118,43.6674437 9.16860917,39.1608392 6.83760684,35.2758353 C5.59440559,33.2556333 4.50660451,31.3908314 3.88500389,29.6814297 C1.86480186,24.2424242 1.86480186,19.1142191 3.72960373,14.6076146 C4.50660451,12.8982129 5.43900544,11.1888112 6.68220668,9.79020979 C8.08080808,8.23620824 9.79020979,6.83760684 11.6550117,5.74980575 C13.3644134,4.66200466 15.3846154,4.04040404 17.8710179,3.41880342 C20.2020202,2.95260295 26.5734266,2.33100233 32.6340326,6.99300699 C36.3636364,9.79020979 39.005439,14.1414141 39.3162393,17.4048174 L39.3162393,21.7560218 L43.3566434,31.0800311 L39.9378399,31.2354312 L40.2486402,39.4716395 C40.2486402,39.9378399 40.0932401,40.4040404 39.7824398,40.7148407 C39.4716395,41.025641 39.005439,41.1810412 38.5392385,41.1810412 L31.3908314,41.1810412 L31.3908314,54.3900544 L28.2828283,54.3900544 L28.2828283,56.7210567 L33.5664336,56.7210567 L33.5664336,43.5120435 L38.3838384,43.5120435 C39.4716395,43.5120435 40.5594406,43.2012432 41.3364413,42.4242424 C42.1134421,41.6472416 42.5796426,40.5594406 42.4242424,39.4716395 L42.1134421,33.5664336 L46.6200466,33.4110334 L41.3364413,21.4452214 L41.3364413,17.4048174 C41.025641,13.3644134 38.0730381,8.54700855 33.7218337,5.28360528 C26.8842269,3.99680289e-15 19.7358197,0.621600622 16.9386169,1.24320124 C14.6076146,1.70940171 12.4320124,2.48640249 10.4118104,3.72960373 C8.23620824,4.97280497 6.52680653,6.52680653 4.97280497,8.23620824 C3.41880342,9.94560995 2.33100233,11.8104118 1.55400155,13.8306138 C-0.466200466,18.8034188 -0.466200466,24.3978244 1.70940171,30.4584305 C2.33100233,32.4786325 3.57420357,34.4988345 4.81740482,36.5190365 Z" id="Shape" stroke="#5C6D7F" stroke-width="1.5"></path>
                <rect id="Rectangle-path" x="27.1950272" y="48.6402486" width="2.33100233" height="2.33100233"></rect>
                <rect id="Rectangle-path" x="27.1950272" y="43.8228438" width="2.33100233" height="2.33100233"></rect>
                <path d="M52.5252525,10.4118104 L49.4172494,7.92540793 C57.6534577,7.77000777 65.5788656,10.4118104 71.950272,15.5400155 C79.2540793,21.2898213 83.7606838,29.5260295 84.8484848,38.6946387 L87.1794872,38.3838384 C86.0916861,28.5936286 81.1188811,19.8912199 73.5042735,13.6752137 C66.5112665,8.08080808 57.8088578,5.28360528 48.951049,5.74980575 L51.5928516,2.33100233 L49.7280497,0.932400932 L44.7552448,7.3038073 L51.1266511,12.2766123 L52.5252525,10.4118104 Z" id="Shape" stroke="#5C6D7F" stroke-width="1.5"></path>
                <path d="M44.4444444,88.2672883 L47.5524476,90.7536908 C39.3162393,91.0644911 31.5462315,88.4226884 25.019425,83.2944833 C17.7156177,77.5446775 13.2090132,69.3084693 12.1212121,60.1398601 L9.79020979,60.4506605 C10.8780109,70.2408702 15.8508159,78.9432789 23.4654235,85.1592852 C29.99223,90.4428904 38.0730381,93.0846931 46.3092463,93.0846931 C46.9308469,93.0846931 47.3970474,93.0846931 48.018648,93.0846931 L45.3768454,96.3480963 L47.2416472,97.7466977 L52.2144522,91.3752914 L45.8430458,86.4024864 L44.4444444,88.2672883 Z" id="Shape" stroke="#5C6D7F" stroke-width="1.5"></path>
            </g>
        </g>
    </g>
</svg>