<?xml version="1.0" encoding="UTF-8"?>
<svg width="220px" height="150px" viewBox="0 0 220 150" version="1.1" xmlns="http://www.w3.org/2000/svg" xmlns:xlink="http://www.w3.org/1999/xlink">
    <!-- Generator: Sketch 50.2 (55047) - http://www.bohemiancoding.com/sketch -->
    <title>H2O</title>
    <desc>Created with Sketch.</desc>
    <defs></defs>
    <g id="H2O" stroke="none" stroke-width="1" fill="none" fill-rule="evenodd">
        <g id="h2o" transform="translate(40.000000, 48.000000)" fill-rule="nonzero">
            <path d="M136.261218,0 C134.590909,0 133.198645,1.39197267 133.198645,3.06257279 C133.198645,4.73317291 134.590618,6.12514557 136.261218,6.12514557 C137.931527,6.12514557 139.323791,4.73317291 139.323791,3.06257279 C139.323791,1.39197267 137.931818,0 136.261218,0 Z M134.312573,37.0283363 L138.488782,37.0283363 L138.488782,12.25 L134.312573,12.25 L134.312573,37.0283363 Z M113.431818,15.5909091 C118.721664,15.5909091 121.784236,19.4884908 121.784236,24.5 C121.784236,29.5112181 119.000291,33.9660547 113.431818,33.9660547 C108.141973,33.9660547 105.358027,29.5115092 105.358027,24.5002911 C105.358027,19.7671182 108.420309,15.5909091 113.431818,15.5909091 Z M125.681818,12.25 L121.505609,12.25 L121.505609,15.8692454 C119.556673,13.3636364 116.494391,11.6930362 112.874854,11.6930362 C105.357736,11.6930362 100.903191,17.8181818 100.903191,24.7783363 C100.903191,31.7384908 105.636072,37.8636364 112.874854,37.8636364 C116.4941,37.8636364 119.278336,36.4716637 121.505609,33.6874272 L121.505609,37.0283363 L125.681818,37.0283363 L125.681818,12.25 Z M93.6646999,31.7384908 C91.994391,31.7384908 90.6021272,33.1304635 90.6021272,34.5224361 C90.6021272,36.1927451 91.9940998,37.5850089 93.6646999,37.5850089 C95.3353001,37.5850089 96.7272727,36.1930362 96.7272727,34.5224361 C96.7272727,33.1307546 95.3353001,31.7384908 93.6646999,31.7384908 Z" id="Fill-2" fill="#808080"></path>
            <polygon id="Fill-4" fill="#000000" points="8.75 18.0965181 8.75 5.56818182 0.397872846 5.56818182 0.397872846 37.8636364 8.75 37.8636364 8.75 24.7783363 20.7216637 24.7783363 20.7216637 37.8636364 29.0737908 37.8636364 29.0737908 5.56818182 20.7216637 5.56818182 20.7216637 18.0965181"></polygon>
            <g id="Group-9" transform="translate(33.265140, 4.308972)" fill="#231F20">
                <path d="M11.1954664,43.8557279 L14.8147118,40.5148188 C17.0419846,38.287546 18.4339572,36.3386096 18.4339572,32.9977005 C18.4339572,27.9864825 14.2577481,24.6452822 9.52486631,24.6452822 C3.95668449,24.6452822 0.615775401,28.2645276 0.615775401,33.5543731 L7.29759358,33.5543731 L7.29759358,32.4407368 C7.29759358,30.7701367 8.13289364,29.6567914 9.80320261,29.6567914 C11.4735116,29.6567914 12.3088116,31.3271004 12.3088116,32.7193642 C12.3088116,34.946637 10.916839,36.8955734 9.80320261,38.5658824 L0.0588116459,48.8669459 L18.7122935,48.8669459 L18.7122935,43.8557279 L11.1954664,43.8557279" id="Fill-5"></path>
                <path d="M37.3660665,8.21936423 C42.3772846,8.21936423 46.5534938,12.3955734 46.5534938,16.8501188 C46.5534938,22.4183007 42.3772846,26.5945098 37.3660665,26.5945098 C32.3548485,26.5945098 28.1786393,22.4183007 28.1786393,16.8501188 C28.1786393,12.3955734 32.3545573,8.21936423 37.3660665,8.21936423 M37.3660665,0.145573381 C28.1786393,0.145573381 19.5478847,7.10572787 19.5478847,16.8501188 C19.5478847,27.4295187 27.065003,34.6683007 37.3660665,34.6683007 C47.6671301,34.6683007 55.1842484,27.1511824 55.1842484,16.8501188 C55.1842484,7.10572787 46.5534938,0.145573381 37.3660665,0.145573381" id="Fill-7"></path>
            </g>
        </g>
    </g>
</svg>