<?xml version="1.0" encoding="UTF-8"?>
<svg width="55px" height="52px" viewBox="0 0 55 52" version="1.1" xmlns="http://www.w3.org/2000/svg" xmlns:xlink="http://www.w3.org/1999/xlink">
    <!-- Generator: Sketch 50.2 (55047) - http://www.bohemiancoding.com/sketch -->
    <title>icon/hiringFair</title>
    <desc>Created with Sketch.</desc>
    <defs></defs>
    <g id="Page-1" stroke="none" stroke-width="1" fill="none" fill-rule="evenodd">
        <g id="Desktop-HD" transform="translate(-857.000000, -604.000000)" fill="#FFFFFF" fill-rule="nonzero">
            <g id="icon/hiringFair" transform="translate(857.000000, 604.000000)">
                <path d="M9.196875,23.9625 L9.871875,22.10625 L5.484375,20.5875 L4.809375,22.44375 L2.19375,21.515625 L0,28.096875 L9.534375,31.3875 L11.728125,24.890625 L9.196875,23.9625 Z M6.24375,22.190625 L8.26875,22.865625 L8.015625,23.540625 L5.990625,22.865625 L6.24375,22.190625 Z M8.775,29.784375 L1.603125,27.3375 L3.0375,23.203125 L10.209375,25.65 L8.775,29.784375 Z" id="Shape"></path>
                <path d="M19.490625,7.0875 C21.346875,7.0875 22.78125,5.56875 22.78125,3.796875 C22.78125,1.940625 21.2625,0.50625 19.490625,0.50625 C17.71875,0.50625 16.2,2.025 16.2,3.796875 C16.2,5.653125 17.634375,7.0875 19.490625,7.0875 Z M19.490625,1.6875 C20.671875,1.6875 21.6,2.615625 21.6,3.796875 C21.6,4.978125 20.671875,5.90625 19.490625,5.90625 C18.309375,5.90625 17.38125,4.978125 17.38125,3.796875 C17.38125,2.615625 18.309375,1.6875 19.490625,1.6875 Z" id="Shape" stroke="#FFFFFF" stroke-width="0.2"></path>
                <path d="M13.8375,16.959375 L13.33125,20.334375 L21.009375,24.46875 L18.646875,32.990625 L27,32.990625 L28.0125,29.784375 L24.553125,29.784375 L26.746875,22.021875 L21.515625,18.73125 L21.76875,16.36875 L32.146875,16.36875 L33.665625,11.8125 L24.215625,11.8125 L22.44375,8.690625 L14.090625,8.690625 L5.821875,19.828125 L10.378125,21.515625 L13.8375,16.959375 Z M7.7625,19.2375 L14.68125,9.871875 L21.684375,9.871875 L23.45625,12.99375 L31.89375,12.99375 L31.21875,15.103125 L20.671875,15.103125 L20.165625,19.321875 L25.228125,22.528125 L22.865625,30.965625 L26.325,30.965625 L26.071875,31.725 L20.25,31.725 L22.44375,23.878125 L14.68125,19.659375 L15.8625,12.234375 L10.040625,19.996875 L7.7625,19.2375 Z" id="Shape" stroke="#FFFFFF" stroke-width="0.2"></path>
                <path d="M14.259375,22.44375 L10.125,40.1625 L17.296875,40.1625 L18.309375,36.7875 L15.778125,36.7875 L18.984375,24.721875 L14.259375,22.44375 Z M16.70625,37.96875 L16.453125,38.896875 L11.728125,38.896875 L15.1875,24.215625 L17.55,25.396875 L14.259375,38.053125 L16.70625,38.053125 L16.70625,37.96875 Z" id="Shape" stroke="#FFFFFF" stroke-width="0.2"></path>
                <polygon id="Shape" stroke="#FFFFFF" stroke-width="0.2" points="36.1125 5.56875 39.4875 2.19375 38.98125 1.6875 41.934375 1.6875 41.934375 4.640625 41.5125 4.21875 36.871875 8.775 37.8 9.61875 41.5125 5.90625 43.2 7.678125 43.2 0.50625 36.028125 0.50625 37.715625 2.19375 35.26875 4.640625"></polygon>
                <polygon id="Shape" points="32.4 8.4375 32.4 8.4375 32.821875 8.859375 33.665625 8.015625 32.821875 7.0875 31.978125 7.93125"></polygon>
                <polygon id="Shape" points="35.4375 6.24375 35.015625 5.821875 35.015625 5.821875 35.015625 5.821875 34.59375 5.4 33.665625 6.24375 34.59375 7.0875"></polygon>
                <path d="M48.515625,6.328125 L42.778125,12.065625 L43.621875,12.909375 L50.203125,6.328125 L49.78125,5.821875 L52.734375,5.821875 L52.734375,8.775 L52.3125,8.26875 L41.5125,19.06875 L37.715625,19.06875 L37.715625,26.578125 L29.19375,26.578125 L29.19375,34.0875 L20.671875,34.0875 L20.671875,41.596875 L12.234375,41.596875 L12.234375,51.80625 L15.1875,51.80625 L47.503125,21.9375 L47.503125,18.984375 L43.284375,18.984375 L52.3125,10.040625 L54,11.728125 L54,4.55625 L46.828125,4.55625 L48.515625,6.328125 Z M46.2375,21.43125 L14.68125,50.625 L13.415625,50.625 L13.415625,42.946875 L21.9375,42.946875 L21.9375,35.4375 L30.459375,35.4375 L30.459375,27.84375 L38.98125,27.84375 L38.98125,20.25 L46.2375,20.25 L46.2375,21.43125 Z" id="Shape" stroke="#FFFFFF" stroke-width="0.2"></path>
                <polygon id="Shape" points="39.825 15.8625 40.33125 16.284375 41.175 15.440625 40.246875 14.596875 39.403125 15.440625 39.825 15.8625"></polygon>
                <polygon id="Shape" points="38.221875 17.55 38.64375 17.971875 39.4875 17.128125 39.065625 16.70625 39.065625 16.70625 39.065625 16.70625 38.64375 16.2 37.715625 17.128125 38.221875 17.55"></polygon>
                <polygon id="Shape" points="42.440625 13.246875 42.01875 12.825 41.175 13.66875 42.01875 14.596875 42.8625 13.66875 42.440625 13.246875"></polygon>
            </g>
        </g>
    </g>
</svg>