<?xml version="1.0" encoding="UTF-8"?>
<svg width="220px" height="150px" viewBox="0 0 220 150" version="1.1" xmlns="http://www.w3.org/2000/svg" xmlns:xlink="http://www.w3.org/1999/xlink">
    <!-- Generator: Sketch 50.2 (55047) - http://www.bohemiancoding.com/sketch -->
    <title>R Logo</title>
    <desc>Created with Sketch.</desc>
    <defs>
        <linearGradient x1="0%" y1="0%" x2="100%" y2="100%" id="linearGradient-1">
            <stop stop-color="#CBCED0" offset="0%"></stop>
            <stop stop-color="#84838B" offset="100%"></stop>
        </linearGradient>
        <linearGradient x1="0%" y1="0%" x2="100%" y2="100%" id="linearGradient-2">
            <stop stop-color="#276DC3" offset="0%"></stop>
            <stop stop-color="#165CAA" offset="100%"></stop>
        </linearGradient>
    </defs>
    <g id="R-Logo" stroke="none" stroke-width="1" fill="none" fill-rule="evenodd">
        <g id="Rlogo" transform="translate(60.000000, 36.000000)">
            <path d="M50.0627424,66.8887812 C22.483241,66.8887812 0.125484765,51.9152355 0.125484765,33.4444598 C0.125484765,14.9735457 22.483241,0 50.0627424,0 C77.6423823,0 100,14.9735457 100,33.4444598 C100,51.9152355 77.6423823,66.8887812 50.0627424,66.8887812 Z M57.7065097,13.0756233 C36.7436288,13.0756233 19.7498615,23.3121884 19.7498615,35.9396122 C19.7498615,48.567036 36.7436288,58.8036011 57.7065097,58.8036011 C78.6692521,58.8036011 94.1394737,51.8051247 94.1394737,35.9396122 C94.1394737,20.0790859 78.6692521,13.0756233 57.7065097,13.0756233 Z" id="Shape" fill="url(#linearGradient-1)"></path>
            <path d="M76.1772853,51.800554 C76.1772853,51.800554 79.199723,52.7126039 80.9556787,53.601108 C81.5649584,53.9094183 82.6191136,54.5246537 83.3795014,55.33241 C84.1243767,56.1235457 84.4875346,56.9252078 84.4875346,56.9252078 L96.398892,77.0083102 L77.1468144,77.0168975 L68.1440443,60.1108033 C68.1440443,60.1108033 66.300554,56.9433518 65.166205,56.0249307 C64.2199446,55.2588643 63.816482,54.9861496 62.8808864,54.9861496 C62.2296399,54.9861496 58.3066482,54.9861496 58.3066482,54.9861496 L58.3102493,77.0047091 L41.2742382,77.0119114 L41.2742382,20.767036 L75.4847645,20.767036 C75.4847645,20.767036 91.066482,21.0480609 91.066482,35.8725762 C91.066482,50.6970914 76.1772853,51.800554 76.1772853,51.800554 Z M68.767313,32.967313 L58.4538781,32.9606648 L58.4487535,42.5243767 L68.767313,42.5210526 C68.767313,42.5210526 73.5457064,42.5062327 73.5457064,37.6560942 C73.5457064,32.7084488 68.767313,32.967313 68.767313,32.967313 Z" id="Shape" fill="url(#linearGradient-2)"></path>
        </g>
    </g>
</svg>