<?xml version="1.0" encoding="UTF-8"?>
<svg width="56px" height="56px" viewBox="0 0 56 56" version="1.1" xmlns="http://www.w3.org/2000/svg" xmlns:xlink="http://www.w3.org/1999/xlink">
    <!-- Generator: Sketch 50.2 (55047) - http://www.bohemiancoding.com/sketch -->
    <title>icon/softSkills</title>
    <desc>Created with Sketch.</desc>
    <defs></defs>
    <g id="Page-1" stroke="none" stroke-width="1" fill="none" fill-rule="evenodd">
        <g id="Desktop-HD" transform="translate(-636.000000, -602.000000)" fill="#FFFFFF" fill-rule="nonzero">
            <g id="icon/softSkills" transform="translate(637.000000, 602.000000)">
                <path d="M53.325,35.353125 C51.215625,36.7875 49.190625,38.30625 47.165625,39.825 C46.828125,40.078125 46.490625,40.1625 46.2375,40.1625 C46.06875,40.1625 45.984375,40.078125 45.9,39.909375 L38.896875,29.615625 C38.8125,29.53125 38.8125,29.3625 38.8125,29.19375 C38.896875,28.940625 39.15,28.603125 39.4875,28.434375 C41.00625,27.50625 42.440625,26.578125 43.959375,25.65 L43.03125,24.553125 C41.596875,25.48125 40.1625,26.409375 38.64375,27.3375 C38.1375,27.675 37.8,28.096875 37.546875,28.603125 L24.80625,28.603125 L23.709375,28.603125 L16.453125,28.603125 C16.284375,28.096875 15.8625,27.675 15.35625,27.3375 C13.8375,26.409375 12.403125,25.48125 10.96875,24.553125 L10.29375,25.565625 C11.728125,26.49375 13.246875,27.50625 14.765625,28.35 C15.103125,28.51875 15.35625,28.85625 15.440625,29.109375 C15.440625,29.278125 15.440625,29.446875 15.35625,29.53125 L8.184375,39.909375 C8.1,39.99375 8.015625,40.078125 7.846875,40.1625 C7.59375,40.246875 7.171875,40.078125 6.91875,39.825 C4.89375,38.30625 2.784375,36.7875 0.759375,35.353125 L0,36.365625 C2.025,37.8 4.134375,39.234375 6.075,40.8375 C7.678125,42.01875 8.94375,41.090625 9.196875,40.66875 L9.703125,39.909375 C10.8,40.584375 11.390625,42.1875 11.390625,42.271875 C11.1375,42.440625 10.040625,43.115625 10.209375,44.971875 C10.29375,45.73125 10.715625,46.321875 11.30625,46.74375 L11.390625,46.828125 C11.896875,47.165625 12.403125,47.334375 12.99375,47.334375 C13.1625,47.334375 13.33125,47.334375 13.5,47.25 C13.5,47.41875 13.5,47.5875 13.5,47.671875 C13.584375,48.43125 14.00625,49.10625 14.596875,49.528125 C15.103125,49.865625 15.69375,50.11875 16.284375,50.11875 C16.5375,50.11875 16.790625,50.11875 17.04375,50.034375 C17.04375,50.11875 17.04375,50.203125 17.04375,50.371875 C17.128125,51.13125 17.55,51.80625 18.140625,52.228125 C18.646875,52.565625 19.2375,52.81875 19.828125,52.81875 C20.08125,52.81875 20.41875,52.734375 20.671875,52.65 C20.75625,53.325 21.09375,54 21.684375,54.50625 C22.10625,54.84375 22.6125,55.0125 23.203125,55.0125 C23.9625,55.0125 24.6375,54.675 25.14375,54.084375 C27.253125,55.265625 28.6875,53.915625 29.109375,53.240625 C29.446875,52.734375 29.615625,52.14375 29.615625,51.553125 L30.375,52.059375 C30.88125,52.396875 32.821875,53.325 34.425,51.3 C34.7625,50.79375 34.93125,50.203125 34.93125,49.6125 L35.1,49.696875 C37.209375,50.9625 38.728125,49.6125 39.15,48.9375 C39.4875,48.43125 39.65625,47.840625 39.65625,47.25 L40.078125,47.503125 C42.271875,48.76875 43.70625,47.41875 44.128125,46.74375 C45.39375,44.55 44.04375,43.115625 43.36875,42.69375 L33.834375,36.28125 L32.0625,36.28125 C28.940625,36.28125 28.51875,33.75 28.51875,33.665625 L28.434375,33.159375 L21.9375,33.159375 L21.853125,33.665625 C21.6,35.184375 21.09375,36.196875 20.25,36.703125 C19.828125,36.95625 19.321875,37.040625 19.06875,37.040625 L19.06875,32.7375 L24.046875,29.953125 L24.80625,29.953125 L37.4625,29.953125 C37.546875,30.121875 37.546875,30.290625 37.715625,30.459375 L44.71875,40.584375 C45.646875,41.934375 47.334375,41.175 47.840625,40.753125 C49.865625,39.234375 51.890625,37.715625 53.915625,36.28125 L53.325,35.353125 Z M14.175,45.646875 C14.175,45.646875 14.090625,45.646875 14.175,45.646875 C12.403125,46.828125 11.64375,45.140625 11.559375,44.71875 C11.475,44.296875 11.559375,43.959375 11.8125,43.621875 C12.065625,43.2 12.571875,43.03125 12.99375,43.03125 C15.525,43.36875 14.428125,45.73125 14.175,45.646875 Z M17.71875,48.2625 C17.2125,48.9375 16.2,49.10625 15.525,48.6 C15.1875,48.346875 14.934375,48.009375 14.934375,47.5875 C14.85,47.165625 14.934375,46.828125 15.1875,46.490625 C15.271875,46.40625 15.35625,46.321875 15.35625,46.2375 C15.440625,46.153125 15.525,45.984375 15.609375,45.9 L16.2,45.140625 C16.5375,44.71875 16.959375,44.465625 17.465625,44.465625 C17.803125,44.465625 18.140625,44.55 18.39375,44.803125 C19.06875,45.309375 19.2375,46.321875 18.73125,46.996875 L17.71875,48.2625 Z M21.178125,50.79375 C20.671875,51.46875 19.659375,51.6375 18.984375,51.13125 C18.646875,50.878125 18.39375,50.540625 18.39375,50.11875 C18.309375,49.696875 18.39375,49.275 18.646875,48.9375 L20.503125,46.490625 C20.840625,46.06875 21.2625,45.815625 21.76875,45.815625 C22.10625,45.815625 22.44375,45.9 22.696875,46.153125 C23.371875,46.659375 23.540625,47.671875 23.034375,48.346875 L21.178125,50.79375 Z M24.553125,52.81875 L24.3,53.15625 C23.878125,53.746875 23.034375,53.83125 22.528125,53.409375 C21.9375,52.9875 21.853125,52.14375 22.275,51.6375 L22.528125,51.3 C22.78125,50.9625 23.11875,50.79375 23.540625,50.79375 C23.79375,50.79375 24.046875,50.878125 24.3,51.046875 C24.553125,51.215625 24.721875,51.553125 24.80625,51.890625 C24.890625,52.14375 24.80625,52.48125 24.553125,52.81875 Z M17.803125,31.89375 L17.803125,37.96875 L18.225,38.1375 C18.309375,38.1375 19.575,38.559375 20.925,37.8 C21.9375,37.209375 22.6125,36.028125 23.034375,34.425 L27.421875,34.425 C27.84375,35.775 29.109375,37.546875 32.0625,37.546875 L33.496875,37.546875 L42.69375,43.790625 C43.03125,44.04375 43.790625,44.8875 43.115625,46.06875 C42.8625,46.40625 42.01875,47.165625 40.753125,46.490625 L38.390625,44.8875 C38.390625,44.8875 38.390625,44.8875 38.390625,44.8875 L31.809375,40.33125 L31.21875,41.34375 L37.8,45.9 C38.1375,46.153125 38.98125,47.08125 38.221875,48.178125 C37.29375,49.275 36.28125,48.853125 35.94375,48.6 L29.3625,44.04375 L29.278125,44.128125 L28.603125,45.140625 L33.075,48.09375 C33.4125,48.346875 34.25625,49.359375 33.496875,50.371875 C32.990625,51.13125 31.978125,51.3 31.21875,50.79375 L27,47.75625 L26.15625,48.9375 L27.759375,50.034375 L27.759375,50.11875 C28.51875,50.625 28.6875,51.6375 28.18125,52.396875 C27.928125,52.734375 27.084375,53.49375 25.903125,52.81875 C26.071875,52.396875 26.071875,51.975 26.071875,51.553125 C25.9875,50.878125 25.65,50.2875 25.059375,49.865625 C24.6375,49.6125 24.215625,49.44375 23.709375,49.44375 L23.9625,49.021875 C24.890625,47.75625 24.6375,45.984375 23.371875,45.05625 C22.865625,44.71875 22.275,44.465625 21.684375,44.465625 C21.09375,44.465625 20.503125,44.71875 19.996875,45.05625 C19.828125,44.465625 19.490625,43.959375 18.984375,43.5375 C18.478125,43.2 17.8875,42.946875 17.296875,42.946875 C16.70625,42.946875 16.115625,43.115625 15.609375,43.5375 C14.934375,41.68125 13.5,41.5125 12.909375,41.5125 C12.825,41.5125 12.65625,41.5125 12.571875,41.596875 C12.571875,41.5125 11.8125,39.571875 10.378125,38.64375 L16.2,30.20625 C16.284375,30.0375 16.36875,29.86875 16.453125,29.7 L21.43125,29.7 L17.803125,31.89375 Z" id="Shape" stroke="#FFFFFF" stroke-width="0.3"></path>
                <rect id="Rectangle-path" transform="translate(45.042564, 35.238097) rotate(-121.431467) translate(-45.042564, -35.238097) " x="44.4097256" y="34.6052578" width="1.26567761" height="1.26567761"></rect>
                <rect id="Rectangle-path" transform="translate(46.327292, 37.361031) rotate(148.560657) translate(-46.327292, -37.361031) " x="45.6944741" y="36.7282128" width="1.26563563" height="1.26563563"></rect>
                <rect id="Rectangle-path" transform="translate(7.551149, 37.611194) rotate(34.792996) translate(-7.551149, -37.611194) " x="6.91835118" y="36.9783962" width="1.26559576" height="1.26559576"></rect>
                <rect id="Rectangle-path" transform="translate(8.899803, 35.576461) rotate(124.805676) translate(-8.899803, -35.576461) " x="8.26698513" y="34.9436433" width="1.2656363" height="1.2656363"></rect>
                <path d="M46.321875,20.165625 C46.321875,9.45 37.63125,0.759375 27,0.759375 C16.36875,0.759375 7.678125,9.45 7.678125,20.165625 L7.678125,20.75625 L46.40625,20.75625 L46.40625,20.165625 L46.321875,20.165625 Z M26.409375,2.109375 L26.409375,10.63125 C24.13125,10.546875 21.9375,10.040625 19.9125,9.196875 C21.43125,5.146875 23.709375,2.446875 26.409375,2.109375 Z M18.73125,8.690625 C17.465625,8.1 16.36875,7.25625 15.271875,6.328125 C17.38125,4.55625 19.828125,3.20625 22.6125,2.53125 C21.09375,3.965625 19.74375,6.075 18.73125,8.690625 Z M26.409375,11.896875 L26.409375,19.490625 L18.140625,19.490625 C18.225,16.115625 18.73125,12.99375 19.575,10.378125 C21.684375,11.30625 23.9625,11.8125 26.409375,11.896875 Z M27.590625,11.896875 C29.953125,11.8125 32.315625,11.30625 34.425,10.378125 C35.26875,12.99375 35.775,16.115625 35.859375,19.490625 L27.590625,19.490625 L27.590625,11.896875 Z M27.590625,10.63125 L27.590625,2.109375 C30.20625,2.446875 32.56875,5.23125 34.0875,9.196875 C32.0625,10.040625 29.86875,10.546875 27.590625,10.63125 Z M31.303125,2.615625 C34.0875,3.290625 36.534375,4.640625 38.64375,6.4125 C37.546875,7.340625 36.45,8.1 35.184375,8.775 C34.25625,6.075 32.90625,3.965625 31.303125,2.615625 Z M14.34375,7.171875 C15.609375,8.26875 16.875,9.1125 18.309375,9.871875 C17.465625,12.65625 16.875,15.946875 16.875,19.490625 L8.94375,19.490625 C9.1125,14.68125 11.1375,10.378125 14.34375,7.171875 Z M37.125,19.490625 C37.040625,15.946875 36.534375,12.65625 35.60625,9.871875 C37.040625,9.196875 38.390625,8.26875 39.571875,7.171875 C42.778125,10.29375 44.8875,14.68125 45.05625,19.490625 L37.125,19.490625 Z" id="Shape" stroke="#FFFFFF" stroke-width="0.3"></path>
            </g>
        </g>
    </g>
</svg>