<?xml version="1.0" encoding="UTF-8"?>
<svg width="102px" height="81px" viewBox="0 0 102 81" version="1.1" xmlns="http://www.w3.org/2000/svg" xmlns:xlink="http://www.w3.org/1999/xlink">
    <!-- Generator: Sketch 50.2 (55047) - http://www.bohemiancoding.com/sketch -->
    <title>icon/techSkilled</title>
    <desc>Created with Sketch.</desc>
    <defs></defs>
    <g id="Page-1" stroke="none" stroke-width="1" fill="none" fill-rule="evenodd">
        <g id="Desktop-HD" transform="translate(-114.000000, -1084.000000)" fill="#5C6D7F" fill-rule="nonzero" stroke="#5C6D7F" stroke-width="1.5">
            <g id="icon/techSkilled" transform="translate(115.000000, 1085.000000)">
                <path d="M94.53125,69.15625 L94.53125,19.9375 L73.90625,19.9375 L73.90625,15.40625 L78.125,13.6875 C78.59375,13.53125 78.90625,13.0625 78.90625,12.59375 C78.90625,12.125 78.59375,11.65625 78.125,11.5 L50.46875,0.5625 C50.15625,0.40625 49.84375,0.40625 49.6875,0.5625 L21.875,11.5 C21.40625,11.65625 21.09375,12.125 21.09375,12.59375 C21.09375,13.0625 21.40625,13.53125 21.875,13.6875 L32.65625,17.90625 L32.65625,19.78125 L5.46875,19.78125 L5.46875,69 L0,69 L0,72.75 L4.21875,78.6875 L95.78125,78.6875 L100,72.75 L100,69 L94.53125,69 L94.53125,69.15625 Z M50,2.90625 L74.53125,12.75 L50,22.4375 L25.46875,12.59375 L50,2.90625 Z M49.53125,24.625 C49.6875,24.625 49.84375,24.78125 50,24.78125 C50.15625,24.78125 50.3125,24.78125 50.46875,24.625 L65,18.84375 L65,29.3125 C62.34375,29.625 55.46875,30.71875 50,36.34375 C44.53125,30.71875 37.65625,29.625 35,29.3125 L35,18.84375 L49.53125,24.625 Z M7.65625,22.125 L32.65625,22.125 L32.65625,30.40625 C32.65625,31.03125 33.125,31.5 33.75,31.5 C33.90625,31.5 42.8125,31.65625 49.0625,38.6875 C49.21875,39 49.53125,39 49.84375,39 C50.15625,39 50.46875,38.84375 50.625,38.6875 C56.875,31.65625 65.9375,31.5 65.9375,31.5 C66.5625,31.5 67.03125,31.03125 67.03125,30.40625 L67.03125,17.90625 L71.25,16.1875 L71.25,33.0625 L68.75,33.0625 C68.125,33.0625 67.65625,33.53125 67.65625,34.15625 C67.65625,34.78125 68.125,35.25 68.75,35.25 L76.25,35.25 C76.875,35.25 77.34375,34.78125 77.34375,34.15625 C77.34375,33.53125 76.875,33.0625 76.25,33.0625 L73.75,33.0625 L73.75,22.125 L92.1875,22.125 L92.1875,69.15625 L7.65625,69.15625 L7.65625,22.125 Z M97.65625,72.125 L94.53125,76.5 L5.46875,76.5 L2.34375,72.125 L2.34375,71.34375 L5.46875,71.34375 L94.6875,71.34375 L97.8125,71.34375 L97.8125,72.125 L97.65625,72.125 Z" id="Shape"></path>
                <path d="M79.84375,51.65625 C79.84375,51.1875 79.53125,50.71875 79.0625,50.5625 L65.46875,46.1875 C65,46.03125 64.6875,46.1875 64.375,46.5 C64.0625,46.8125 63.90625,47.28125 64.0625,47.59375 L68.4375,61.1875 C68.59375,61.65625 69.0625,61.96875 69.53125,61.96875 C69.53125,61.96875 69.53125,61.96875 69.53125,61.96875 C70,61.96875 70.46875,61.65625 70.625,61.1875 L72.5,56.1875 L77.96875,61.65625 C78.125,61.8125 78.4375,61.96875 78.75,61.96875 C79.0625,61.96875 79.375,61.8125 79.53125,61.65625 C80,61.1875 80,60.5625 79.53125,60.09375 L74.0625,54.625 L79.0625,52.75 C79.53125,52.59375 79.84375,52.125 79.84375,51.65625 Z M71.5625,53.0625 C71.5625,53.0625 71.5625,53.0625 71.5625,53.0625 C71.40625,53.0625 71.25,53.21875 71.09375,53.375 C71.09375,53.375 71.09375,53.375 71.09375,53.375 C70.9375,53.53125 70.9375,53.6875 70.78125,53.84375 C70.78125,53.84375 70.78125,53.84375 70.78125,53.84375 L69.53125,57.4375 L66.875,49.15625 L75.15625,51.8125 L71.5625,53.0625 Z" id="Shape"></path>
                <rect id="Rectangle-path" x="12.65625" y="60.5625" width="45.46875" height="2.34375"></rect>
                <rect id="Rectangle-path" x="12.65625" y="53.375" width="38.4375" height="2.34375"></rect>
                <rect id="Rectangle-path" x="12.65625" y="46.34375" width="31.09375" height="2.34375"></rect>
            </g>
        </g>
    </g>
</svg>