<?xml version="1.0" encoding="UTF-8"?>
<svg width="59px" height="56px" viewBox="0 0 59 56" version="1.1" xmlns="http://www.w3.org/2000/svg" xmlns:xlink="http://www.w3.org/1999/xlink">
    <!-- Generator: Sketch 50.2 (55047) - http://www.bohemiancoding.com/sketch -->
    <title>icon/techSkills</title>
    <desc>Created with Sketch.</desc>
    <defs></defs>
    <g id="Page-1" stroke="none" stroke-width="1" fill="none" fill-rule="evenodd">
        <g id="Desktop-HD" transform="translate(-205.000000, -602.000000)" fill="#FFFFFF" fill-rule="nonzero">
            <g id="icon/techSkills" transform="translate(206.000000, 603.000000)">
                <g id="73" transform="translate(0.000000, 10.000000)">
                    <path d="M26.2384615,43.3384615 L42.7153846,34.7538462 C44.0307692,34.2 44.7230769,32.6076923 44.1692308,31.2923077 C43.8923077,30.6692308 43.4076923,30.1153846 42.7153846,29.8384615 C42.0923077,29.5615385 41.3307692,29.5615385 40.7076923,29.8384615 L30.8769231,34.2 C30.8769231,34.0615385 30.9461538,33.8538462 30.9461538,33.7153846 C30.9461538,32.4 29.8384615,31.2923077 28.5230769,31.2230769 C28.5230769,31.2230769 28.5230769,31.2230769 28.4538462,31.2230769 L21.6692308,31.2230769 L16.4769231,28.8 C15.4384615,28.3153846 14.1923077,28.0384615 13.0153846,28.0384615 L9,28.0384615 L9,26.2384615 L1.66153846,26.2384615 L1.66153846,27.2769231 L7.96153846,27.2769231 L7.96153846,41.3307692 L0,41.3307692 L0,42.3692308 L9,42.3692308 L9,40.5692308 L12.0461538,40.5692308 L21.4615385,43.7538462 C22.0846154,43.9615385 22.7769231,44.1 23.4,44.1 C24.3692308,44.0307692 25.3384615,43.8230769 26.2384615,43.3384615 Z M21.8076923,42.7846154 L12.2538462,39.6 L9,39.6 L9,29.0769231 L13.0153846,29.0769231 C14.0538462,29.0769231 15.0923077,29.2846154 15.9923077,29.7692308 L21.3923077,32.2615385 L28.3846154,32.2615385 C29.1461538,32.2615385 29.7692308,32.9538462 29.7692308,33.7153846 C29.7692308,34.5461538 29.1461538,35.1692308 28.3153846,35.1692308 L20.0769231,35.1692308 L20.0076923,35.1692308 C19.2461538,35.3076923 17.8615385,35.9307692 17.8615385,37.3846154 L18.9,37.3846154 C18.9,36.4846154 19.9384615,36.2076923 20.1461538,36.1384615 L28.3846154,36.1384615 C28.8,36.1384615 29.1461538,36 29.4923077,35.8615385 L40.9846154,30.8076923 C41.8153846,30.4615385 42.7846154,30.8769231 43.1307692,31.7076923 C43.4769231,32.5384615 43.0615385,33.5076923 42.2307692,33.8538462 L25.7538462,42.4384615 C24.5076923,43.0615385 23.0538462,43.2 21.8076923,42.7846154 Z" id="Shape" stroke="#FFFFFF" stroke-width="0.3"></path>
                    <rect id="Rectangle-path" x="4.84615385" y="38.2153846" width="1.03846154" height="1.24615385"></rect>
                    <rect id="Rectangle-path" x="2.63076923" y="38.2153846" width="1.03846154" height="1.24615385"></rect>
                    <path d="M40.6384615,9.83076923 C39.3230769,6.78461538 36.9,4.43076923 33.7846154,3.18461538 L33.3,2.97692308 L28.8,14.3307692 L16.7538462,16.1307692 L16.8230769,16.6153846 C17.1692308,18.9 18,20.7692308 19.3846154,22.5692308 C21.7384615,25.5461538 25.3384615,27.2769231 29.1461538,27.2769231 C31.7769231,27.2769231 34.3384615,26.4461538 36.4846154,24.8538462 L37.3153846,24.2307692 C37.3153846,24.2307692 39.9461538,21.8769231 40.7769231,19.3846154 C42.0230769,16.2692308 42.0230769,12.8769231 40.6384615,9.83076923 Z M29.2153846,26.2384615 C25.6846154,26.2384615 22.4307692,24.6461538 20.2153846,21.8769231 C19.0384615,20.3538462 18.2769231,18.8307692 17.9307692,16.9615385 L28.9384615,15.3692308 L35.7923077,24.0923077 L35.8615385,24.1615385 C33.9230769,25.5461538 31.6384615,26.2384615 29.2153846,26.2384615 Z M39.8769231,19.0384615 C39.1846154,20.8384615 38.1461538,22.2230769 36.7615385,23.4692308 L30.3230769,15.3 L40.7076923,15.3 C40.5692308,16.5461538 40.3615385,17.7923077 39.8769231,19.0384615 Z M29.9769231,14.2615385 L33.9230769,4.36153846 C36.5538462,5.53846154 38.6307692,7.61538462 39.7384615,10.2461538 C40.2923077,11.5615385 40.5692308,12.8769231 40.6384615,14.2615385 L29.9769231,14.2615385 Z" id="Shape"></path>
                    <path d="M15.2307692,15.0923077 L27.9,13.2230769 L32.6076923,1.31538462 L32.1230769,1.10769231 C29.9769231,0.276923077 27.9692308,7.49400542e-16 25.6846154,0.346153846 C22.3615385,0.830769231 19.4538462,2.56153846 17.5153846,5.26153846 C15.5076923,7.96153846 14.6769231,11.2153846 15.1615385,14.5384615 L15.2307692,15.0923077 Z M18.2769231,5.95384615 C20.1461538,3.46153846 22.7769231,1.86923077 25.8230769,1.38461538 C26.4461538,1.31538462 27,1.24615385 27.6230769,1.24615385 C28.8692308,1.24615385 30.0461538,1.45384615 31.2923077,1.86923077 L27.2076923,12.2538462 L16.2,13.8461538 C15.7846154,11.0769231 16.6153846,8.23846154 18.2769231,5.95384615 Z" id="Shape"></path>
                </g>
                <g id="654" transform="translate(42.000000, 6.000000)" stroke="#FFFFFF" stroke-width="0.1">
                    <polygon id="Shape" points="13.6875 11.9200627 13.6875 11.3322884 13.3359375 11.3322884 13.3359375 11.9200627 11.7421875 11.9200627 11.7421875 11.3322884 11.4140625 11.3322884 11.4140625 11.9200627 9.8203125 11.9200627 9.8203125 11.3322884 9.46875 11.3322884 9.46875 11.9200627 7.8984375 11.9200627 7.8984375 11.3322884 7.546875 11.3322884 7.546875 11.9200627 5.953125 11.9200627 5.953125 11.3322884 5.625 11.3322884 5.625 11.9200627 4.03125 11.9200627 4.03125 11.3322884 3.6796875 11.3322884 3.6796875 11.9200627 2.109375 11.9200627 2.109375 11.3322884 1.7578125 11.3322884 1.7578125 11.9200627 0.3515625 11.9200627 0.3515625 10.7915361 0.9375 10.7915361 0.9375 10.4388715 0.3515625 10.4388715 0.3515625 8.95768025 0.9375 8.95768025 0.9375 8.62852665 0.3515625 8.62852665 0.3515625 7.14733542 0.9375 7.14733542 0.9375 6.79467085 0.3515625 6.79467085 0.3515625 5.31347962 0.9375 5.31347962 0.9375 4.96081505 0.3515625 4.96081505 0.3515625 3.47962382 0.9375 3.47962382 0.9375 3.12695925 0.3515625 3.12695925 0.3515625 1.64576803 0.9375 1.64576803 0.9375 1.29310345 0.3515625 1.29310345 0.3515625 0 0 0 0 12.2727273 15 12.2727273 15 11.9200627"></polygon>
                    <path d="M10.9090909,10.9090909 L12.9545455,10.9090909 L12.9545455,7.5 L10.9090909,7.5 L10.9090909,10.9090909 Z M11.3293898,7.88739669 L12.5342466,7.88739669 L12.5342466,10.5216942 L11.3293898,10.5216942 L11.3293898,7.88739669 Z" id="Shape"></path>
                    <path d="M5.45454545,10.9090909 L7.5,10.9090909 L7.5,4.09090909 L5.45454545,4.09090909 L5.45454545,10.9090909 Z M5.87484433,4.46280992 L7.07970112,4.46280992 L7.07970112,10.5371901 L5.87484433,10.5371901 L5.87484433,4.46280992 Z" id="Shape"></path>
                    <path d="M4.77272727,2.72727273 L2.72727273,2.72727273 L2.72727273,10.2272727 L4.77272727,10.2272727 L4.77272727,2.72727273 Z M4.35242839,9.90518684 L3.14757161,9.90518684 L3.14757161,3.07236475 L4.35242839,3.07236475 L4.35242839,9.90518684 Z" id="Shape"></path>
                    <path d="M8.18181818,10.2272727 L10.2272727,10.2272727 L10.2272727,5.45454545 L8.18181818,5.45454545 L8.18181818,10.2272727 Z M8.60211706,5.8037694 L9.80697385,5.8037694 L9.80697385,9.87804878 L8.60211706,9.87804878 L8.60211706,5.8037694 Z" id="Shape"></path>
                    <polygon id="Shape" points="8.79058442 3.22177822 11.7074443 6.44355644 10.8029917 6.44355644 10.8029917 6.81818182 12.2727273 6.81818182 12.2727273 5.19480519 11.9561688 5.19480519 11.9561688 6.19380619 8.92625232 2.84715285 6.21289425 2.84715285 3.63520408 0 3.40909091 0.274725275 6.07722635 3.22177822"></polygon>
                </g>
                <g id="672" transform="translate(2.000000, 0.000000)" stroke="#FFFFFF" stroke-width="0.2">
                    <path d="M14.425,0.610749186 L12.325,0.610749186 L12.325,5.71661238 L9.1,5.71661238 L9.1,1.49022801 C9.1,0.537459283 6.75,0 4.55,0 C2.35,0.0244299674 0,0.537459283 0,1.49022801 L0,9.30781759 C0,10.2361564 2.225,10.7491857 4.375,10.7980456 L4.375,12.7035831 L2.3,14.7312704 L2.55,14.97557 L4.375,13.1921824 L4.375,14.8289902 L4.75,14.8289902 L4.75,13.2166124 L6.575,15 L6.825,14.7557003 L4.75,12.7035831 L4.75,10.7980456 C6.9,10.7736156 9.125,10.2605863 9.125,9.30781759 L9.125,6.08306189 L12.325,6.08306189 L12.325,11.1889251 L14.425,11.1889251 L14.425,11.7752443 L16,11.7752443 L16,10.2361564 L14.425,10.2361564 L14.425,10.8224756 L12.7,10.8224756 L12.7,6.08306189 L14.425,6.08306189 L14.425,6.66938111 L16,6.66938111 L16,5.13029316 L14.425,5.13029316 L14.425,5.71661238 L12.7,5.71661238 L12.7,0.977198697 L14.425,0.977198697 L14.425,1.56351792 L16,1.56351792 L16,0.0244299674 L14.425,0.0244299674 L14.425,0.610749186 Z M4.55,0.366449511 C7.15,0.366449511 8.75,1.02605863 8.75,1.49022801 C8.75,1.95439739 7.15,2.61400651 4.55,2.61400651 C1.95,2.61400651 0.375,1.97882736 0.375,1.49022801 C0.375,1.00162866 1.95,0.366449511 4.55,0.366449511 Z M0.375,2.1009772 C1.125,2.66286645 2.875,2.98045603 4.575,2.98045603 C6.25,2.98045603 8,2.68729642 8.75,2.1009772 L8.75,4.10423453 C8.75,4.56840391 7.15,5.22801303 4.55,5.22801303 C1.95,5.22801303 0.375,4.56840391 0.375,4.10423453 L0.375,2.1009772 Z M4.55,10.4315961 C1.95,10.4315961 0.375,9.79641694 0.375,9.30781759 L0.375,7.30456026 C1.125,7.86644951 2.875,8.18403909 4.575,8.18403909 C6.25,8.18403909 8.025,7.89087948 8.775,7.30456026 L8.775,9.30781759 C8.75,9.79641694 7.15,10.4315961 4.55,10.4315961 Z M4.55,7.84201954 C1.95,7.84201954 0.35,7.18241042 0.35,6.71824104 L0.35,4.71498371 C1.1,5.27687296 2.85,5.59446254 4.55,5.59446254 C6.225,5.59446254 8,5.30130293 8.75,4.71498371 L8.75,6.71824104 C8.75,7.18241042 7.15,7.84201954 4.55,7.84201954 Z M14.775,10.6026059 L15.625,10.6026059 L15.625,11.4332248 L14.775,11.4332248 L14.775,10.6026059 Z M14.775,5.49674267 L15.625,5.49674267 L15.625,6.32736156 L14.775,6.32736156 L14.775,5.49674267 Z M14.775,0.366449511 L15.625,0.366449511 L15.625,1.1970684 L14.775,1.1970684 L14.775,0.366449511 Z" id="Shape"></path>
                </g>
            </g>
        </g>
    </g>
</svg>